<?xml version="1.0" encoding="UTF-8" standalone="no"?>
<!DOCTYPE svg PUBLIC "-//W3C//DTD SVG 1.1//EN"
 "http://www.w3.org/Graphics/SVG/1.1/DTD/svg11.dtd">
<!-- Generated by graphviz version 2.26.3 (20100126.1600)
 -->
<!-- Title: G Pages: 1 -->
<svg width="624pt" height="584pt"
 viewBox="0.00 0.00 624.00 584.00" xmlns="http://www.w3.org/2000/svg" xmlns:xlink="http://www.w3.org/1999/xlink">
<g id="graph1" class="graph" transform="scale(1 1) rotate(0) translate(4 580)">
<title>G</title>
<polygon fill="white" stroke="white" points="-4,5 -4,-580 621,-580 621,5 -4,5"/>
<g id="graph2" class="cluster"><title>cluster_Global</title>
<polyline fill="none" stroke="gray" points="430,-8 596,-8 "/>
<path fill="none" stroke="gray" d="M596,-8C602,-8 608,-14 608,-20"/>
<polyline fill="none" stroke="gray" points="608,-20 608,-556 "/>
<path fill="none" stroke="gray" d="M608,-556C608,-562 602,-568 596,-568"/>
<polyline fill="none" stroke="gray" points="596,-568 430,-568 "/>
<path fill="none" stroke="gray" d="M430,-568C424,-568 418,-562 418,-556"/>
<polyline fill="none" stroke="gray" points="418,-556 418,-20 "/>
<path fill="none" stroke="gray" d="M418,-20C418,-14 424,-8 430,-8"/>
<text text-anchor="middle" x="513" y="-554.1" font-family="Times Roman,serif" font-size="11.00" fill="gray">Global</text>
</g>
<g id="graph3" class="cluster"><title>cluster_\Thyyppa</title>
<polyline fill="none" stroke="gray" points="438,-16 588,-16 "/>
<path fill="none" stroke="gray" d="M588,-16C594,-16 600,-22 600,-28"/>
<polyline fill="none" stroke="gray" points="600,-28 600,-526 "/>
<path fill="none" stroke="gray" d="M600,-526C600,-532 594,-538 588,-538"/>
<polyline fill="none" stroke="gray" points="588,-538 438,-538 "/>
<path fill="none" stroke="gray" d="M438,-538C432,-538 426,-532 426,-526"/>
<polyline fill="none" stroke="gray" points="426,-526 426,-28 "/>
<path fill="none" stroke="gray" d="M426,-28C426,-22 432,-16 438,-16"/>
<text text-anchor="middle" x="513" y="-524.1" font-family="Times Roman,serif" font-size="11.00" fill="gray">Thyyppa</text>
</g>
<g id="graph4" class="cluster"><title>cluster_\Thyyppa\Timpani</title>
<polyline fill="none" stroke="gray" points="446,-24 580,-24 "/>
<path fill="none" stroke="gray" d="M580,-24C586,-24 592,-30 592,-36"/>
<polyline fill="none" stroke="gray" points="592,-36 592,-496 "/>
<path fill="none" stroke="gray" d="M592,-496C592,-502 586,-508 580,-508"/>
<polyline fill="none" stroke="gray" points="580,-508 446,-508 "/>
<path fill="none" stroke="gray" d="M446,-508C440,-508 434,-502 434,-496"/>
<polyline fill="none" stroke="gray" points="434,-496 434,-36 "/>
<path fill="none" stroke="gray" d="M434,-36C434,-30 440,-24 446,-24"/>
<text text-anchor="middle" x="513" y="-494.1" font-family="Times Roman,serif" font-size="11.00" fill="gray">Timpani</text>
</g>
<g id="graph5" class="cluster"><title>cluster_\Thyyppa\Timpani\Repository</title>
<polyline fill="none" stroke="gray" points="458,-350 568,-350 "/>
<path fill="none" stroke="gray" d="M568,-350C574,-350 580,-356 580,-362"/>
<polyline fill="none" stroke="gray" points="580,-362 580,-466 "/>
<path fill="none" stroke="gray" d="M580,-466C580,-472 574,-478 568,-478"/>
<polyline fill="none" stroke="gray" points="568,-478 458,-478 "/>
<path fill="none" stroke="gray" d="M458,-478C452,-478 446,-472 446,-466"/>
<polyline fill="none" stroke="gray" points="446,-466 446,-362 "/>
<path fill="none" stroke="gray" d="M446,-362C446,-356 452,-350 458,-350"/>
<text text-anchor="middle" x="513" y="-464.1" font-family="Times Roman,serif" font-size="11.00" fill="gray">Repository</text>
</g>
<g id="graph6" class="cluster"><title>cluster_\Thyyppa\Timpani\Render</title>
<polyline fill="none" stroke="gray" points="489,-268 537,-268 "/>
<path fill="none" stroke="gray" d="M537,-268C543,-268 549,-274 549,-280"/>
<polyline fill="none" stroke="gray" points="549,-280 549,-330 "/>
<path fill="none" stroke="gray" d="M549,-330C549,-336 543,-342 537,-342"/>
<polyline fill="none" stroke="gray" points="537,-342 489,-342 "/>
<path fill="none" stroke="gray" d="M489,-342C483,-342 477,-336 477,-330"/>
<polyline fill="none" stroke="gray" points="477,-330 477,-280 "/>
<path fill="none" stroke="gray" d="M477,-280C477,-274 483,-268 489,-268"/>
<text text-anchor="middle" x="513" y="-328.1" font-family="Times Roman,serif" font-size="11.00" fill="gray">Render</text>
</g>
<g id="graph7" class="cluster"><title>cluster_\Thyyppa\Timpani\Form</title>
<polyline fill="none" stroke="gray" points="490,-186 536,-186 "/>
<path fill="none" stroke="gray" d="M536,-186C542,-186 548,-192 548,-198"/>
<polyline fill="none" stroke="gray" points="548,-198 548,-248 "/>
<path fill="none" stroke="gray" d="M548,-248C548,-254 542,-260 536,-260"/>
<polyline fill="none" stroke="gray" points="536,-260 490,-260 "/>
<path fill="none" stroke="gray" d="M490,-260C484,-260 478,-254 478,-248"/>
<polyline fill="none" stroke="gray" points="478,-248 478,-198 "/>
<path fill="none" stroke="gray" d="M478,-198C478,-192 484,-186 490,-186"/>
<text text-anchor="middle" x="513" y="-246.1" font-family="Times Roman,serif" font-size="11.00" fill="gray">Form</text>
</g>
<!-- \\Thyyppa\\Timpani\\Repository\\ContentRepository -->
<g id="node5" class="node"><title>\\Thyyppa\\Timpani\\Repository\\ContentRepository</title>
<polygon fill="none" stroke="black" points="571,-448 455,-448 455,-412 571,-412 571,-448"/>
<text text-anchor="middle" x="513" y="-427.1" font-family="Times Roman,serif" font-size="11.00">ContentRepository</text>
</g>
<!-- \\Thyyppa\\Timpani\\Repository\\Content -->
<g id="node6" class="node"><title>\\Thyyppa\\Timpani\\Repository\\Content</title>
<polygon fill="none" stroke="black" points="543,-394 483,-394 483,-358 543,-358 543,-394"/>
<text text-anchor="middle" x="513" y="-373.1" font-family="Times Roman,serif" font-size="11.00">Content</text>
</g>
<!-- \\Eloquent -->
<g id="node17" class="node"><title>\\Eloquent</title>
<ellipse fill="none" stroke="black" cx="185" cy="-376" rx="58.1882" ry="18.3848"/>
<text text-anchor="middle" x="185" y="-372.4" font-family="Times Roman,serif" font-size="14.00" fill="gray">\Eloquent</text>
</g>
<!-- \\Thyyppa\\Timpani\\Repository\\Content&#45;&gt;\\Eloquent -->
<g id="edge10" class="edge"><title>\\Thyyppa\\Timpani\\Repository\\Content&#45;&gt;\\Eloquent</title>
<path fill="none" stroke="black" d="M482.73,-376C431.034,-376 324.484,-376 253.88,-376"/>
<polygon fill="none" stroke="black" points="253.734,-372.5 243.734,-376 253.734,-379.5 253.734,-372.5"/>
</g>
<!-- \\Thyyppa\\Timpani\\Render\\Render -->
<g id="node8" class="node"><title>\\Thyyppa\\Timpani\\Render\\Render</title>
<polygon fill="none" stroke="black" points="540,-312 486,-312 486,-276 540,-276 540,-312"/>
<text text-anchor="middle" x="513" y="-291.1" font-family="Times Roman,serif" font-size="11.00">Render</text>
</g>
<!-- \\Thyyppa\\Timpani\\Form\\Form -->
<g id="node10" class="node"><title>\\Thyyppa\\Timpani\\Form\\Form</title>
<polygon fill="none" stroke="black" points="540,-230 486,-230 486,-194 540,-194 540,-230"/>
<text text-anchor="middle" x="513" y="-209.1" font-family="Times Roman,serif" font-size="11.00">Form</text>
</g>
<!-- \\Thyyppa\\Timpani\\Timpani -->
<g id="node11" class="node"><title>\\Thyyppa\\Timpani\\Timpani</title>
<polygon fill="none" stroke="black" points="542,-176 484,-176 484,-140 542,-140 542,-176"/>
<text text-anchor="middle" x="513" y="-155.1" font-family="Times Roman,serif" font-size="11.00">Timpani</text>
</g>
<!-- \\Illuminate\\Support\\Facades\\Facade -->
<g id="node15" class="node"><title>\\Illuminate\\Support\\Facades\\Facade</title>
<ellipse fill="none" stroke="black" cx="185" cy="-158" rx="181.934" ry="18.3848"/>
<text text-anchor="middle" x="185" y="-154.4" font-family="Times Roman,serif" font-size="14.00" fill="gray">\Illuminate\Support\Facades\Facade</text>
</g>
<!-- \\Thyyppa\\Timpani\\Timpani&#45;&gt;\\Illuminate\\Support\\Facades\\Facade -->
<g id="edge8" class="edge"><title>\\Thyyppa\\Timpani\\Timpani&#45;&gt;\\Illuminate\\Support\\Facades\\Facade</title>
<path fill="none" stroke="black" d="M483.314,-158C458.038,-158 419.351,-158 378.128,-158"/>
<polygon fill="none" stroke="black" points="377.886,-154.5 367.886,-158 377.886,-161.5 377.886,-154.5"/>
</g>
<!-- \\Thyyppa\\Timpani\\FacadeHandler -->
<g id="node12" class="node"><title>\\Thyyppa\\Timpani\\FacadeHandler</title>
<polygon fill="none" stroke="black" points="561,-122 465,-122 465,-86 561,-86 561,-122"/>
<text text-anchor="middle" x="513" y="-101.1" font-family="Times Roman,serif" font-size="11.00">FacadeHandler</text>
</g>
<!-- \\Thyyppa\\Timpani\\TimpaniServiceProvider -->
<g id="node13" class="node"><title>\\Thyyppa\\Timpani\\TimpaniServiceProvider</title>
<polygon fill="none" stroke="black" points="584,-68 442,-68 442,-32 584,-32 584,-68"/>
<text text-anchor="middle" x="513" y="-47.1" font-family="Times Roman,serif" font-size="11.00">TimpaniServiceProvider</text>
</g>
<!-- \\Illuminate\\Support\\ServiceProvider -->
<g id="node19" class="node"><title>\\Illuminate\\Support\\ServiceProvider</title>
<ellipse fill="none" stroke="black" cx="185" cy="-50" rx="184.055" ry="18.3848"/>
<text text-anchor="middle" x="185" y="-46.4" font-family="Times Roman,serif" font-size="14.00" fill="gray">\Illuminate\Support\ServiceProvider</text>
</g>
<!-- \\Thyyppa\\Timpani\\TimpaniServiceProvider&#45;&gt;\\Illuminate\\Support\\ServiceProvider -->
<g id="edge12" class="edge"><title>\\Thyyppa\\Timpani\\TimpaniServiceProvider&#45;&gt;\\Illuminate\\Support\\ServiceProvider</title>
<path fill="none" stroke="black" d="M441.829,-50C423.039,-50 401.825,-50 379.845,-50"/>
<polygon fill="none" stroke="black" points="379.697,-46.5001 369.697,-50 379.697,-53.5001 379.697,-46.5001"/>
</g>
</g>
</svg>
