<?xml version="1.0" encoding="UTF-8" standalone="no"?>
<!DOCTYPE svg PUBLIC "-//W3C//DTD SVG 1.1//EN"
 "http://www.w3.org/Graphics/SVG/1.1/DTD/svg11.dtd">
<!-- Generated by graphviz version 2.26.3 (20100126.1600)
 -->
<!-- Title: G Pages: 1 -->
<svg width="624pt" height="584pt"
 viewBox="0.00 0.00 624.00 584.00" xmlns="http://www.w3.org/2000/svg" xmlns:xlink="http://www.w3.org/1999/xlink">
<g id="graph1" class="graph" transform="scale(1 1) rotate(0) translate(4 580)">
<title>G</title>
<polygon fill="white" stroke="white" points="-4,5 -4,-580 621,-580 621,5 -4,5"/>
<g id="graph2" class="cluster"><title>cluster_Global</title>
<polyline fill="none" stroke="gray" points="430,-8 596,-8 "/>
<path fill="none" stroke="gray" d="M596,-8C602,-8 608,-14 608,-20"/>
<polyline fill="none" stroke="gray" points="608,-20 608,-556 "/>
<path fill="none" stroke="gray" d="M608,-556C608,-562 602,-568 596,-568"/>
<polyline fill="none" stroke="gray" points="596,-568 430,-568 "/>
<path fill="none" stroke="gray" d="M430,-568C424,-568 418,-562 418,-556"/>
<polyline fill="none" stroke="gray" points="418,-556 418,-20 "/>
<path fill="none" stroke="gray" d="M418,-20C418,-14 424,-8 430,-8"/>
<text text-anchor="middle" x="513" y="-554.1" font-family="Times Roman,serif" font-size="11.00" fill="gray">Global</text>
</g>
<g id="graph3" class="cluster"><title>cluster_\Thyyppa</title>
<polyline fill="none" stroke="gray" points="438,-16 588,-16 "/>
<path fill="none" stroke="gray" d="M588,-16C594,-16 600,-22 600,-28"/>
<polyline fill="none" stroke="gray" points="600,-28 600,-526 "/>
<path fill="none" stroke="gray" d="M600,-526C600,-532 594,-538 588,-538"/>
<polyline fill="none" stroke="gray" points="588,-538 438,-538 "/>
<path fill="none" stroke="gray" d="M438,-538C432,-538 426,-532 426,-526"/>
<polyline fill="none" stroke="gray" points="426,-526 426,-28 "/>
<path fill="none" stroke="gray" d="M426,-28C426,-22 432,-16 438,-16"/>
<text text-anchor="middle" x="513" y="-524.1" font-family="Times Roman,serif" font-size="11.00" fill="gray">Thyyppa</text>
</g>
<g id="graph4" class="cluster"><title>cluster_\Thyyppa\Timpani</title>
<polyline fill="none" stroke="gray" points="446,-24 580,-24 "/>
<path fill="none" stroke="gray" d="M580,-24C586,-24 592,-30 592,-36"/>
<polyline fill="none" stroke="gray" points="592,-36 592,-496 "/>
<path fill="none" stroke="gray" d="M592,-496C592,-502 586,-508 580,-508"/>
<polyline fill="none" stroke="gray" points="580,-508 446,-508 "/>
<path fill="none" stroke="gray" d="M446,-508C440,-508 434,-502 434,-496"/>
<polyline fill="none" stroke="gray" points="434,-496 434,-36 "/>
<path fill="none" stroke="gray" d="M434,-36C434,-30 440,-24 446,-24"/>
<text text-anchor="middle" x="513" y="-494.1" font-family="Times Roman,serif" font-size="11.00" fill="gray">Timpani</text>
</g>
<g id="graph5" class="cluster"><title>cluster_\Thyyppa\Timpani\Form</title>
<polyline fill="none" stroke="gray" points="490,-404 536,-404 "/>
<path fill="none" stroke="gray" d="M536,-404C542,-404 548,-410 548,-416"/>
<polyline fill="none" stroke="gray" points="548,-416 548,-466 "/>
<path fill="none" stroke="gray" d="M548,-466C548,-472 542,-478 536,-478"/>
<polyline fill="none" stroke="gray" points="536,-478 490,-478 "/>
<path fill="none" stroke="gray" d="M490,-478C484,-478 478,-472 478,-466"/>
<polyline fill="none" stroke="gray" points="478,-466 478,-416 "/>
<path fill="none" stroke="gray" d="M478,-416C478,-410 484,-404 490,-404"/>
<text text-anchor="middle" x="513" y="-464.1" font-family="Times Roman,serif" font-size="11.00" fill="gray">Form</text>
</g>
<g id="graph6" class="cluster"><title>cluster_\Thyyppa\Timpani\Repository</title>
<polyline fill="none" stroke="gray" points="458,-268 568,-268 "/>
<path fill="none" stroke="gray" d="M568,-268C574,-268 580,-274 580,-280"/>
<polyline fill="none" stroke="gray" points="580,-280 580,-384 "/>
<path fill="none" stroke="gray" d="M580,-384C580,-390 574,-396 568,-396"/>
<polyline fill="none" stroke="gray" points="568,-396 458,-396 "/>
<path fill="none" stroke="gray" d="M458,-396C452,-396 446,-390 446,-384"/>
<polyline fill="none" stroke="gray" points="446,-384 446,-280 "/>
<path fill="none" stroke="gray" d="M446,-280C446,-274 452,-268 458,-268"/>
<text text-anchor="middle" x="513" y="-382.1" font-family="Times Roman,serif" font-size="11.00" fill="gray">Repository</text>
</g>
<g id="graph7" class="cluster"><title>cluster_\Thyyppa\Timpani\Render</title>
<polyline fill="none" stroke="gray" points="489,-186 537,-186 "/>
<path fill="none" stroke="gray" d="M537,-186C543,-186 549,-192 549,-198"/>
<polyline fill="none" stroke="gray" points="549,-198 549,-248 "/>
<path fill="none" stroke="gray" d="M549,-248C549,-254 543,-260 537,-260"/>
<polyline fill="none" stroke="gray" points="537,-260 489,-260 "/>
<path fill="none" stroke="gray" d="M489,-260C483,-260 477,-254 477,-248"/>
<polyline fill="none" stroke="gray" points="477,-248 477,-198 "/>
<path fill="none" stroke="gray" d="M477,-198C477,-192 483,-186 489,-186"/>
<text text-anchor="middle" x="513" y="-246.1" font-family="Times Roman,serif" font-size="11.00" fill="gray">Render</text>
</g>
<!-- \\Thyyppa\\Timpani\\Form\\Form -->
<g id="node5" class="node"><title>\\Thyyppa\\Timpani\\Form\\Form</title>
<polygon fill="none" stroke="black" points="540,-448 486,-448 486,-412 540,-412 540,-448"/>
<text text-anchor="middle" x="513" y="-427.1" font-family="Times Roman,serif" font-size="11.00">Form</text>
</g>
<!-- \\Thyyppa\\Timpani\\Repository\\ContentRepository -->
<g id="node7" class="node"><title>\\Thyyppa\\Timpani\\Repository\\ContentRepository</title>
<polygon fill="none" stroke="black" points="571,-366 455,-366 455,-330 571,-330 571,-366"/>
<text text-anchor="middle" x="513" y="-345.1" font-family="Times Roman,serif" font-size="11.00">ContentRepository</text>
</g>
<!-- \\Thyyppa\\Timpani\\Repository\\Content -->
<g id="node8" class="node"><title>\\Thyyppa\\Timpani\\Repository\\Content</title>
<polygon fill="none" stroke="black" points="543,-312 483,-312 483,-276 543,-276 543,-312"/>
<text text-anchor="middle" x="513" y="-291.1" font-family="Times Roman,serif" font-size="11.00">Content</text>
</g>
<!-- \\Eloquent -->
<g id="node19" class="node"><title>\\Eloquent</title>
<ellipse fill="none" stroke="black" cx="185" cy="-294" rx="58.1882" ry="18.3848"/>
<text text-anchor="middle" x="185" y="-290.4" font-family="Times Roman,serif" font-size="14.00" fill="gray">\Eloquent</text>
</g>
<!-- \\Thyyppa\\Timpani\\Repository\\Content&#45;&gt;\\Eloquent -->
<g id="edge12" class="edge"><title>\\Thyyppa\\Timpani\\Repository\\Content&#45;&gt;\\Eloquent</title>
<path fill="none" stroke="black" d="M482.73,-294C431.034,-294 324.484,-294 253.88,-294"/>
<polygon fill="none" stroke="black" points="253.734,-290.5 243.734,-294 253.734,-297.5 253.734,-290.5"/>
</g>
<!-- \\Thyyppa\\Timpani\\Render\\Render -->
<g id="node10" class="node"><title>\\Thyyppa\\Timpani\\Render\\Render</title>
<polygon fill="none" stroke="black" points="540,-230 486,-230 486,-194 540,-194 540,-230"/>
<text text-anchor="middle" x="513" y="-209.1" font-family="Times Roman,serif" font-size="11.00">Render</text>
</g>
<!-- \\Thyyppa\\Timpani\\Timpani -->
<g id="node11" class="node"><title>\\Thyyppa\\Timpani\\Timpani</title>
<polygon fill="none" stroke="black" points="542,-176 484,-176 484,-140 542,-140 542,-176"/>
<text text-anchor="middle" x="513" y="-155.1" font-family="Times Roman,serif" font-size="11.00">Timpani</text>
</g>
<!-- \\Illuminate\\Support\\Facades\\Facade -->
<g id="node15" class="node"><title>\\Illuminate\\Support\\Facades\\Facade</title>
<ellipse fill="none" stroke="black" cx="185" cy="-158" rx="181.934" ry="18.3848"/>
<text text-anchor="middle" x="185" y="-154.4" font-family="Times Roman,serif" font-size="14.00" fill="gray">\Illuminate\Support\Facades\Facade</text>
</g>
<!-- \\Thyyppa\\Timpani\\Timpani&#45;&gt;\\Illuminate\\Support\\Facades\\Facade -->
<g id="edge8" class="edge"><title>\\Thyyppa\\Timpani\\Timpani&#45;&gt;\\Illuminate\\Support\\Facades\\Facade</title>
<path fill="none" stroke="black" d="M483.314,-158C458.038,-158 419.351,-158 378.128,-158"/>
<polygon fill="none" stroke="black" points="377.886,-154.5 367.886,-158 377.886,-161.5 377.886,-154.5"/>
</g>
<!-- \\Thyyppa\\Timpani\\FacadeHandler -->
<g id="node12" class="node"><title>\\Thyyppa\\Timpani\\FacadeHandler</title>
<polygon fill="none" stroke="black" points="561,-122 465,-122 465,-86 561,-86 561,-122"/>
<text text-anchor="middle" x="513" y="-101.1" font-family="Times Roman,serif" font-size="11.00">FacadeHandler</text>
</g>
<!-- \\Thyyppa\\Timpani\\TimpaniServiceProvider -->
<g id="node13" class="node"><title>\\Thyyppa\\Timpani\\TimpaniServiceProvider</title>
<polygon fill="none" stroke="black" points="584,-68 442,-68 442,-32 584,-32 584,-68"/>
<text text-anchor="middle" x="513" y="-47.1" font-family="Times Roman,serif" font-size="11.00">TimpaniServiceProvider</text>
</g>
<!-- \\Illuminate\\Support\\ServiceProvider -->
<g id="node17" class="node"><title>\\Illuminate\\Support\\ServiceProvider</title>
<ellipse fill="none" stroke="black" cx="185" cy="-50" rx="184.055" ry="18.3848"/>
<text text-anchor="middle" x="185" y="-46.4" font-family="Times Roman,serif" font-size="14.00" fill="gray">\Illuminate\Support\ServiceProvider</text>
</g>
<!-- \\Thyyppa\\Timpani\\TimpaniServiceProvider&#45;&gt;\\Illuminate\\Support\\ServiceProvider -->
<g id="edge10" class="edge"><title>\\Thyyppa\\Timpani\\TimpaniServiceProvider&#45;&gt;\\Illuminate\\Support\\ServiceProvider</title>
<path fill="none" stroke="black" d="M441.829,-50C423.039,-50 401.825,-50 379.845,-50"/>
<polygon fill="none" stroke="black" points="379.697,-46.5001 369.697,-50 379.697,-53.5001 379.697,-46.5001"/>
</g>
</g>
</svg>
